<?xml version="1.0" encoding="UTF-8"?>
<svg id="Layer_4_Image" data-name="Layer 4 Image" xmlns="http://www.w3.org/2000/svg" viewBox="0 0 133.06 133.2">
  <defs>
    <style>
      .cls-1 {
        stroke-width: 0px;
      }
    </style>
  </defs>
  <path class="cls-1" d="m62.57,0h7.77c.06.2.23.13.36.14,3.09.16,6.16.56,9.18,1.2,15.53,3.31,28.38,11.09,38.39,23.42,8.52,10.49,13.32,22.54,14.54,36.01.06.62-.06,1.27.25,1.86v7.92c-.22.09-.13.28-.14.43-.18,3.02-.57,6.02-1.2,8.97-3.27,15.39-10.93,28.16-23.06,38.15-10.57,8.7-22.74,13.61-36.38,14.84-.64.06-1.32-.07-1.93.24h-7.91c-.06-.2-.22-.13-.36-.15-.95-.09-1.91-.17-2.86-.27-9.29-1-17.97-3.86-26.04-8.55C11.06,111.37-2.04,86.88.26,60.78c.67-7.59,2.52-14.86,5.71-21.77C16.13,16.95,36.65,2.46,60.78.25c.59-.05,1.23.06,1.79-.25Zm42.53,56.23c0-9.36,0-18.72,0-28.08,0-1.2-.01-2.4-.02-3.6,0-.23.06-.44-.36-.43-3.86.12-7.7.36-11.54.7-7.97.7-15.92,1.55-23.85,2.66-8.52,1.2-17,2.6-25.4,4.47-.64.14-.81.37-.82,1.03-.08,17.57-.19,35.13-.27,52.7,0,.51-.1.66-.63.56-2.09-.38-4.19-.4-6.3-.12-5.27.71-9.35,3.24-11.97,7.96-.68,1.23-1.09,2.55-1.19,3.96-.43,6.3,5.46,11.9,12.43,11.23,2.97-.29,5.52-1.66,8-3.19,3.55-2.18,5.33-5.37,5.57-9.51.27-4.51.36-9.02.37-13.53.02-11.06,0-22.13-.02-33.19,0-.4-.04-.7.54-.79,5.75-.88,11.5-1.8,17.25-2.71,10.5-1.66,21.01-3.33,31.51-5,.5-.08.7-.05.7.56-.1,11.88-.18,23.76-.24,35.64,0,.52-.15.58-.61.5-1.99-.35-4-.4-6.01-.15-5.56.68-9.83,3.32-12.45,8.37-.97,1.87-1.27,3.87-.87,5.94,1.14,5.82,6.95,9.77,12.92,8.79,3.36-.55,6.22-2.17,8.87-4.2,2.24-1.72,3.48-4.04,3.89-6.82.3-2.02.34-4.06.41-6.1.28-9.21.21-18.43.11-27.64Z"/>
</svg>