<?xml version="1.0" encoding="UTF-8"?>
<svg id="Layer_7_Image" data-name="Layer 7 Image" xmlns="http://www.w3.org/2000/svg" viewBox="0 0 133.01 133.17">
  <defs>
    <style>
      .cls-1 {
        fill: #939393;
        stroke-width: 0px;
      }
    </style>
  </defs>
  <path class="cls-1" d="m133.01,66.64c.06,36.91-30.15,66.68-66.74,66.53C29.6,133.02-.07,103.05,0,66.5.07,29.46,30.33-.17,66.8,0c36.61.17,66.34,30.09,66.21,66.64Zm-27.98-21.59c0-4.83,0-12.03,0-19.23,0-.46,0-.91,0-1.37,0-.22,0-.43-.34-.41-1.89.09-3.78.1-5.67.25-4.34.34-8.68.7-13.01,1.14-4.38.44-8.76.93-13.12,1.49-4.72.61-9.43,1.3-14.13,2.09-5.03.85-10.04,1.78-15.02,2.9-.5.11-.7.3-.69.85.02,2.35-.03,4.7-.06,7.05-.1,8.64-.04,17.28-.15,25.92-.09,6.58-.06,13.15-.07,19.73,0,.48.02.84-.67.71-2.01-.38-4.05-.39-6.08-.14-4.68.58-8.52,2.6-11.27,6.53-1.51,2.16-2.39,4.51-2.04,7.16.79,6.06,6.74,10.34,12.92,9.41,3.57-.54,6.58-2.29,9.34-4.51,1.75-1.41,2.83-3.29,3.33-5.5.28-1.25.44-2.51.48-3.77.13-3.69.25-7.38.29-11.08.05-4.42.03-8.83.03-13.25,0-7.06-.01-14.11-.04-21.17,0-.54.08-.79.7-.87,2.18-.29,4.35-.66,6.53-1,6.47-1.03,12.95-2.07,19.42-3.1,7.54-1.2,15.08-2.38,22.62-3.58.58-.09.71.06.69.61-.05,1.61-.08,3.21-.09,4.82-.06,10.17-.11,20.35-.17,30.52,0,.07,0,.14,0,.22.06.45-.13.59-.58.52-1.99-.34-4-.39-6.01-.15-4.54.53-8.34,2.42-11.11,6.15-1.78,2.39-2.8,5.02-2.26,8.06,1,5.53,6.44,9.84,12.99,8.9,2.79-.4,5.2-1.75,7.54-3.24,3.32-2.1,5.04-5.12,5.34-9.04.2-2.54.26-5.08.33-7.62.12-4.12.14-8.25.15-12.38.02-7.08.07-14.16-.13-23.61Z"/>
</svg>